<?xml version="1.0" encoding="UTF-8"?>
<svg xmlns="http://www.w3.org/2000/svg" xmlns:xlink="http://www.w3.org/1999/xlink" width="104pt" height="104pt" viewBox="0 0 104 104" version="1.1">
<g id="surface41619693">
<path style=" stroke:none;fill-rule:nonzero;fill:rgb(80.000001%,80.000001%,80.000001%);fill-opacity:1;" d="M 52.636719 10.398438 C 40.976562 10.398438 28.027344 14.761719 25.300781 29.019531 C 25.011719 30.539062 26.074219 31.316406 27.078125 31.539062 L 38.910156 32.742188 C 40.023438 32.683594 40.910156 31.652344 41.125 30.558594 C 42.144531 25.644531 46.304688 23.21875 50.972656 23.21875 C 53.492188 23.21875 56.347656 24.160156 57.835938 26.394531 C 59.558594 28.886719 59.273438 32.273438 59.273438 35.160156 L 59.273438 36.800781 C 52.167969 37.589844 42.90625 38.074219 36.265625 40.964844 C 28.589844 44.246094 23.203125 50.941406 23.203125 60.789062 C 23.203125 73.386719 31.257812 79.738281 41.574219 79.738281 C 50.285156 79.738281 54.984375 77.652344 61.710938 70.871094 C 63.929688 74.054688 64.722656 75.621094 68.792969 78.976562 C 69.707031 79.460938 70.863281 79.371094 71.667969 78.648438 L 71.667969 78.757812 C 74.113281 76.601562 78.570312 72.738281 81.066406 70.652344 C 82.0625 69.84375 81.847656 68.578125 81.066406 67.472656 C 78.828125 64.410156 76.53125 61.871094 76.53125 56.183594 L 76.53125 37.339844 C 76.53125 29.335938 77.074219 21.929688 71.113281 16.417969 C 66.410156 11.953125 58.59375 10.398438 52.636719 10.398438 Z M 55.953125 46.542969 C 57.058594 46.46875 58.164062 46.542969 59.273438 46.542969 L 59.273438 49.167969 C 59.273438 53.898438 59.464844 57.785156 57.058594 61.988281 C 55.109375 65.398438 51.980469 67.464844 48.539062 67.464844 C 43.839844 67.464844 41.121094 63.945312 41.121094 58.695312 C 41.121094 49.664062 48.222656 47.046875 55.953125 46.542969 Z M 90.410156 77.03125 C 87.257812 77.078125 83.566406 77.738281 80.742188 79.699219 C 79.875 80.300781 80 81.15625 80.964844 81.039062 C 84.144531 80.664062 91.171875 79.773438 92.433594 81.371094 C 93.699219 82.972656 91.042969 89.554688 89.855469 92.496094 C 89.496094 93.382812 90.277344 93.726562 91.089844 93.050781 C 96.378906 88.667969 97.789062 79.582031 96.707031 78.25 C 96.171875 77.601562 93.566406 76.988281 90.410156 77.03125 Z M 7.550781 78.699219 C 6.890625 78.785156 6.632812 79.640625 7.324219 80.261719 C 19.085938 90.773438 34.585938 97.066406 51.84375 97.066406 C 64.15625 97.066406 78.523438 93.25 88.386719 86.042969 C 90.015625 84.847656 88.597656 83.003906 86.929688 83.707031 C 75.875 88.351562 63.789062 90.605469 52.859375 90.605469 C 36.652344 90.605469 21.027344 86.230469 8.339844 78.921875 C 8.0625 78.761719 7.765625 78.667969 7.550781 78.699219 Z M 7.550781 78.699219 "/>
</g>
</svg>
