<?xml version="1.0" encoding="UTF-8"?>
<svg xmlns="http://www.w3.org/2000/svg" xmlns:xlink="http://www.w3.org/1999/xlink" width="104pt" height="104pt" viewBox="0 0 104 104" version="1.1" stroke-width="2">
<g id="surface38011238">
<path style=" stroke:black;fill-rule:nonzero;fill:rgb(0,0,0);fill-opacity:1;" d="M 85.28125 4.160156 C 77.261719 4.160156 70.71875 10.703125 70.71875 18.71875 C 70.71875 22.554688 72.226562 26.039062 74.664062 28.644531 L 57.253906 49.921875 L 33.113281 49.921875 C 32.097656 42.882812 26.027344 37.441406 18.71875 37.441406 C 10.703125 37.441406 4.160156 43.984375 4.160156 52 C 4.160156 60.015625 10.703125 66.558594 18.71875 66.558594 C 26.027344 66.558594 32.097656 61.117188 33.113281 54.078125 L 57.203125 54.078125 L 73.914062 76.210938 C 71.917969 78.703125 70.71875 81.855469 70.71875 85.28125 C 70.71875 93.296875 77.261719 99.839844 85.28125 99.839844 C 93.296875 99.839844 99.839844 93.296875 99.839844 85.28125 C 99.839844 77.261719 93.296875 70.71875 85.28125 70.71875 C 82.191406 70.71875 79.328125 71.699219 76.96875 73.351562 L 60.882812 52.054688 L 77.90625 31.246094 C 80.074219 32.527344 82.589844 33.28125 85.28125 33.28125 C 93.296875 33.28125 99.839844 26.738281 99.839844 18.71875 C 99.839844 10.703125 93.296875 4.160156 85.28125 4.160156 Z M 85.28125 8.320312 C 91.046875 8.320312 95.679688 12.953125 95.679688 18.71875 C 95.679688 24.488281 91.046875 29.121094 85.28125 29.121094 C 79.511719 29.121094 74.878906 24.488281 74.878906 18.71875 C 74.878906 12.953125 79.511719 8.320312 85.28125 8.320312 Z M 18.71875 41.601562 C 24.488281 41.601562 29.121094 46.230469 29.121094 52 C 29.121094 57.769531 24.488281 62.398438 18.71875 62.398438 C 12.953125 62.398438 8.320312 57.769531 8.320312 52 C 8.320312 46.230469 12.953125 41.601562 18.71875 41.601562 Z M 85.28125 74.878906 C 91.046875 74.878906 95.679688 79.511719 95.679688 85.28125 C 95.679688 91.046875 91.046875 95.679688 85.28125 95.679688 C 79.511719 95.679688 74.878906 91.046875 74.878906 85.28125 C 74.878906 79.511719 79.511719 74.878906 85.28125 74.878906 Z M 85.28125 74.878906 "/>
</g>
</svg>
