<?xml version="1.0" encoding="UTF-8"?>
<svg xmlns="http://www.w3.org/2000/svg" xmlns:xlink="http://www.w3.org/1999/xlink" width="104pt" height="104pt" viewBox="0 0 104 104" version="1.1">
<g id="surface41614489">
<path style=" stroke:none;fill-rule:nonzero;fill:rgb(80.000001%,80.000001%,80.000001%);fill-opacity:1;" d="M 52 0 C 23.28125 0 0 23.28125 0 52 C 0 78.070312 19.207031 99.597656 44.226562 103.359375 L 44.226562 65.78125 L 31.359375 65.78125 L 31.359375 52.113281 L 44.226562 52.113281 L 44.226562 43.015625 C 44.226562 27.957031 51.5625 21.351562 64.078125 21.351562 C 70.070312 21.351562 73.242188 21.796875 74.742188 21.996094 L 74.742188 33.925781 L 66.203125 33.925781 C 60.890625 33.925781 59.039062 38.964844 59.039062 44.640625 L 59.039062 52.113281 L 74.605469 52.113281 L 72.496094 65.78125 L 59.039062 65.78125 L 59.039062 103.46875 C 84.417969 100.027344 104 78.324219 104 52 C 104 23.28125 80.71875 0 52 0 Z M 52 0 "/>
</g>
</svg>
