<?xml version="1.0" encoding="UTF-8"?>
<svg xmlns="http://www.w3.org/2000/svg" xmlns:xlink="http://www.w3.org/1999/xlink" width="104pt" height="104pt" viewBox="0 0 104 104" version="1.1">
<g id="surface37986077">
<path style=" stroke:none;fill-rule:nonzero;fill:rgb(80.000001%,80.000001%,80.000001%);fill-opacity:1;" d="M 52 10.398438 C 29.027344 10.398438 10.398438 29.027344 10.398438 52 C 10.398438 71.492188 23.824219 87.804688 41.917969 92.316406 C 41.726562 91.753906 41.601562 91.105469 41.601562 90.296875 L 41.601562 83.1875 C 39.910156 83.1875 37.082031 83.1875 36.371094 83.1875 C 33.527344 83.1875 30.996094 81.960938 29.769531 79.6875 C 28.40625 77.160156 28.171875 73.296875 24.792969 70.929688 C 23.792969 70.144531 24.554688 69.246094 25.707031 69.367188 C 27.839844 69.972656 29.609375 71.433594 31.273438 73.605469 C 32.929688 75.777344 33.710938 76.269531 36.804688 76.269531 C 38.308594 76.269531 40.554688 76.183594 42.667969 75.851562 C 43.804688 72.964844 45.769531 70.304688 48.171875 69.050781 C 34.320312 67.625 27.710938 60.734375 27.710938 51.375 C 27.710938 47.347656 29.425781 43.453125 32.339844 40.167969 C 31.382812 36.910156 30.179688 30.265625 32.707031 27.734375 C 38.941406 27.734375 42.710938 31.777344 43.613281 32.867188 C 46.71875 31.804688 50.132812 31.199219 53.714844 31.199219 C 57.308594 31.199219 60.734375 31.804688 63.84375 32.875 C 64.738281 31.789062 68.511719 27.734375 74.757812 27.734375 C 77.296875 30.265625 76.078125 36.941406 75.113281 40.191406 C 78.011719 43.46875 79.714844 47.355469 79.714844 51.375 C 79.714844 60.726562 73.117188 67.613281 59.285156 69.046875 C 63.089844 71.03125 65.867188 76.613281 65.867188 80.820312 L 65.867188 90.296875 C 65.867188 90.65625 65.785156 90.917969 65.746094 91.226562 C 81.957031 85.542969 93.601562 70.152344 93.601562 52 C 93.601562 29.027344 74.972656 10.398438 52 10.398438 Z M 52 10.398438 "/>
</g>
</svg>
