<?xml version="1.0" encoding="UTF-8"?>
<svg xmlns="http://www.w3.org/2000/svg" xmlns:xlink="http://www.w3.org/1999/xlink" width="104pt" height="104pt" viewBox="0 0 104 104" version="1.1">
<g id="surface41613873">
<path style=" stroke:none;fill-rule:nonzero;fill:rgb(80.000001%,80.000001%,80.000001%);fill-opacity:1;" d="M 54.363281 44.367188 L 54.363281 60.925781 L 77.957031 60.925781 C 74.871094 70.957031 66.488281 78.136719 54.363281 78.136719 C 39.921875 78.136719 28.21875 66.433594 28.21875 52 C 28.21875 37.566406 39.921875 25.863281 54.363281 25.863281 C 60.851562 25.863281 66.78125 28.242188 71.351562 32.15625 L 83.546875 19.964844 C 75.847656 12.949219 65.601562 8.667969 54.363281 8.667969 C 30.425781 8.667969 11.019531 28.066406 11.019531 52 C 11.019531 75.933594 30.425781 95.332031 54.363281 95.332031 C 90.746094 95.332031 98.773438 61.316406 95.207031 44.425781 Z M 54.363281 44.367188 "/>
</g>
</svg>
