<?xml version="1.0" encoding="UTF-8"?>
<svg xmlns="http://www.w3.org/2000/svg" xmlns:xlink="http://www.w3.org/1999/xlink" width="104pt" height="104pt" viewBox="0 0 104 104" version="1.1">
<g id="surface41616430">
<path style=" stroke:none;fill-rule:nonzero;fill:rgb(80.000001%,80.000001%,80.000001%);fill-opacity:1;" d="M 34.660156 10.398438 C 21.28125 10.398438 10.398438 21.292969 10.398438 34.671875 L 10.398438 69.339844 C 10.398438 82.71875 21.292969 93.601562 34.671875 93.601562 L 69.339844 93.601562 C 82.71875 93.601562 93.601562 82.707031 93.601562 69.328125 L 93.601562 34.660156 C 93.601562 21.28125 82.707031 10.398438 69.328125 10.398438 Z M 76.265625 24.265625 C 78.179688 24.265625 79.734375 25.820312 79.734375 27.734375 C 79.734375 29.648438 78.179688 31.199219 76.265625 31.199219 C 74.351562 31.199219 72.800781 29.648438 72.800781 27.734375 C 72.800781 25.820312 74.351562 24.265625 76.265625 24.265625 Z M 52 31.199219 C 63.472656 31.199219 72.800781 40.527344 72.800781 52 C 72.800781 63.472656 63.472656 72.800781 52 72.800781 C 40.527344 72.800781 31.199219 63.472656 31.199219 52 C 31.199219 40.527344 40.527344 31.199219 52 31.199219 Z M 52 38.132812 C 44.339844 38.132812 38.132812 44.339844 38.132812 52 C 38.132812 59.660156 44.339844 65.867188 52 65.867188 C 59.660156 65.867188 65.867188 59.660156 65.867188 52 C 65.867188 44.339844 59.660156 38.132812 52 38.132812 Z M 52 38.132812 "/>
</g>
</svg>
