<?xml version="1.0" encoding="UTF-8"?>
<svg xmlns="http://www.w3.org/2000/svg" xmlns:xlink="http://www.w3.org/1999/xlink" width="104pt" height="104pt" viewBox="0 0 104 104" version="1.1">
<g id="surface37986917">
<path style=" stroke:none;fill-rule:nonzero;fill:rgb(80.000001%,80.000001%,80.000001%);fill-opacity:1;" d="M 20.800781 13.867188 C 16.96875 13.867188 13.867188 16.96875 13.867188 20.800781 L 13.867188 41.601562 C 13.867188 45.429688 16.96875 48.535156 20.800781 48.535156 L 41.601562 48.535156 C 45.429688 48.535156 48.535156 45.429688 48.535156 41.601562 L 48.535156 20.800781 C 48.535156 16.96875 45.429688 13.867188 41.601562 13.867188 Z M 62.398438 13.867188 C 58.570312 13.867188 55.464844 16.96875 55.464844 20.800781 L 55.464844 41.601562 C 55.464844 45.429688 58.570312 48.535156 62.398438 48.535156 L 83.199219 48.535156 C 87.03125 48.535156 90.132812 45.429688 90.132812 41.601562 L 90.132812 20.800781 C 90.132812 16.96875 87.03125 13.867188 83.199219 13.867188 Z M 20.800781 55.464844 C 16.96875 55.464844 13.867188 58.570312 13.867188 62.398438 L 13.867188 83.199219 C 13.867188 87.03125 16.96875 90.132812 20.800781 90.132812 L 41.601562 90.132812 C 45.429688 90.132812 48.535156 87.03125 48.535156 83.199219 L 48.535156 62.398438 C 48.535156 58.570312 45.429688 55.464844 41.601562 55.464844 Z M 62.398438 55.464844 C 58.570312 55.464844 55.464844 58.570312 55.464844 62.398438 L 55.464844 83.199219 C 55.464844 87.03125 58.570312 90.132812 62.398438 90.132812 L 83.199219 90.132812 C 87.03125 90.132812 90.132812 87.03125 90.132812 83.199219 L 90.132812 62.398438 C 90.132812 58.570312 87.03125 55.464844 83.199219 55.464844 Z M 62.398438 55.464844 "/>
</g>
</svg>
